<?xml version="1.0" encoding="UTF-8"?>
<svg width="46px" height="41px" viewBox="0 0 46 46" version="1.1" xmlns="http://www.w3.org/2000/svg"
    xmlns:xlink="http://www.w3.org/1999/xlink">
    <title>Opel_Logo_46x41</title>
    <g id="Opel_Logo_46x41" stroke="none" stroke-width="1" fill="none" fill-rule="evenodd">
        <g id="OPEL_vertical_46x41" transform="translate(0.000000, -0.000000)" fill="#fff" fill-rule="nonzero">
            <path
                d="M46,40.1491228 L46,38.9385965 L42.2675439,38.9385965 L42.2675439,34.0964912 L40.8552632,34.0964912 L40.8552632,40.25 L46,40.25 L46,40.1491228 Z M27.3377193,40.1491228 L32.5833333,40.1491228 L32.5833333,38.9385965 L28.75,38.9385965 L28.75,37.627193 L32.2807018,37.627193 L32.2807018,36.5175439 L28.75,36.5175439 L28.75,35.3070175 L32.5833333,35.3070175 L32.5833333,34.0964912 L27.3377193,34.0964912 L27.3377193,40.1491228 Z M15.8377193,37.122807 L15.8377193,35.2061404 L17.8552632,35.2061404 C18.1578947,35.2061404 18.3596491,35.2061404 18.5614035,35.3070175 C18.7631579,35.4078947 18.8640351,35.5087719 18.8640351,35.6096491 C18.9649123,35.7105263 18.9649123,35.9122807 18.9649123,36.1140351 C18.9649123,36.4166667 18.8640351,36.7192982 18.6622807,36.8201754 C18.4605263,36.9210526 18.1578947,37.0219298 17.8552632,37.0219298 L15.8377193,37.0219298 L15.8377193,37.122807 Z M14.4254386,34.0964912 L14.4254386,40.25 L15.8377193,40.25 L15.8377193,38.3333333 L17.9561404,38.3333333 C18.7631579,38.3333333 19.3684211,38.1315789 19.7719298,37.8289474 C20.1754386,37.5263158 20.377193,36.9210526 20.377193,36.2149123 C20.377193,35.7105263 20.2763158,35.2061404 20.0745614,34.9035088 C19.872807,34.6008772 19.6710526,34.3991228 19.2675439,34.1973684 C18.9649123,34.0964912 18.4605263,33.995614 17.9561404,33.995614 L14.4254386,33.995614 L14.4254386,34.0964912 Z M2.42105263,38.8377193 C2.11842105,38.7368421 1.91666667,38.5350877 1.71491228,38.2324561 C1.61403509,37.9298246 1.51315789,37.627193 1.51315789,37.122807 C1.51315789,36.7192982 1.61403509,36.3157895 1.71491228,36.0131579 C1.81578947,35.7105263 2.01754386,35.5087719 2.32017544,35.4078947 C2.62280702,35.3070175 3.02631579,35.2061404 3.53070175,35.2061404 C4.03508772,35.2061404 4.53947368,35.3070175 4.84210526,35.4078947 C5.14473684,35.5087719 5.34649123,35.7105263 5.44736842,36.0131579 C5.54824561,36.3157895 5.64912281,36.6184211 5.64912281,37.122807 C5.64912281,37.627193 5.54824561,37.9298246 5.44736842,38.2324561 C5.34649123,38.5350877 5.14473684,38.7368421 4.74122807,38.8377193 C4.64035088,39.0394737 4.13596491,39.0394737 3.63157895,39.0394737 C3.12719298,39.0394737 2.72368421,39.0394737 2.42105263,38.8377193 M5.64912281,39.9473684 C6.15350877,39.745614 6.55701754,39.3421053 6.85964912,38.8377193 C7.1622807,38.3333333 7.26315789,37.7280702 7.26315789,37.0219298 C7.26315789,36.3157895 7.1622807,35.7105263 6.85964912,35.2061404 C6.55701754,34.7017544 6.25438596,34.3991228 5.64912281,34.0964912 C5.14473684,33.8947368 4.43859649,33.7938596 3.63157895,33.7938596 C2.8245614,33.7938596 2.11842105,33.8947368 1.61403509,34.0964912 C1.10964912,34.2982456 0.706140351,34.7017544 0.403508772,35.2061404 C0.100877193,35.7105263 0,36.3157895 0,37.0219298 C0,37.7280702 0.100877193,38.3333333 0.403508772,38.8377193 C0.706140351,39.3421053 1.00877193,39.6447368 1.61403509,39.9473684 C2.11842105,40.1491228 2.8245614,40.25 3.63157895,40.25 C4.43859649,40.3508772 5.14473684,40.1491228 5.64912281,39.9473684"
                id="Shape"></path>
            <path
                d="M40.3508772,15.2324561 L37.0219298,15.0307018 L36.6184211,15.0307018 C36.6184211,14.627193 36.6184211,14.3245614 36.6184211,13.9210526 C36.6184211,6.25438596 30.3640351,0 22.6973684,0 C16.1403509,0 10.5921053,4.64035088 9.17982456,10.7938596 L8.77631579,10.7938596 L6.15350877,10.7938596 C5.95175439,10.7938596 5.85087719,10.8947368 5.75,10.995614 L4.94298246,12.1052632 C4.94298246,12.1052632 4.84210526,12.2061404 4.84210526,12.3070175 C4.84210526,12.4078947 4.94298246,12.6096491 5.14473684,12.6096491 L8.47368421,12.8114035 L8.87719298,12.8114035 C8.87719298,13.2149123 8.87719298,13.5175439 8.87719298,13.9210526 C8.87719298,21.5877193 15.1315789,27.8421053 22.7982456,27.8421053 C29.3552632,27.8421053 34.9035088,23.2017544 36.3157895,17.0482456 L36.7192982,17.0482456 L39.3421053,17.0482456 C39.5438596,17.0482456 39.6447368,16.9473684 39.745614,16.8464912 L40.5526316,15.7368421 C40.5526316,15.7368421 40.6535088,15.6359649 40.6535088,15.5350877 C40.6535088,15.3333333 40.5526316,15.2324561 40.3508772,15.2324561 Z M22.7982456,1.51315789 C29.5570175,1.51315789 35.1052632,7.06140351 35.1052632,13.8201754 C35.1052632,14.122807 35.1052632,14.5263158 35.1052632,14.8289474 L35.1052632,14.8289474 L24.8157895,14.2236842 L29.254386,11.1973684 C29.3552632,11.1973684 29.3552632,11.0964912 29.3552632,10.995614 C29.3552632,10.8947368 29.254386,10.7938596 29.1535088,10.7938596 L10.995614,10.7938596 L10.995614,10.7938596 C12.3070175,5.44736842 17.0482456,1.51315789 22.7982456,1.51315789 Z M22.7982456,26.127193 C16.0394737,26.127193 10.4912281,20.5789474 10.4912281,13.8201754 C10.4912281,13.5175439 10.4912281,13.1140351 10.4912281,12.8114035 L20.7807018,13.4166667 L16.3421053,16.4429825 C16.2412281,16.4429825 16.2412281,16.5438596 16.2412281,16.6447368 C16.2412281,16.745614 16.3421053,16.8464912 16.4429825,16.8464912 L34.6008772,16.8464912 L34.6008772,16.8464912 C33.2894737,22.1929825 28.4473684,26.127193 22.7982456,26.127193 Z"
                id="Shape"></path>
        </g>
    </g>
</svg>