<svg width="13" height="12" viewBox="0 0 13 12" fill="none" xmlns="http://www.w3.org/2000/svg">
<path d="M11.4015 2.40066H8.40147V1.39873C8.38739 1.01465 8.22159 0.651817 7.94041 0.389776C7.65923 0.127734 7.28561 -0.0121362 6.90147 0.000827006H5.10147C4.71732 -0.0121362 4.3437 0.127734 4.06252 0.389776C3.78134 0.651817 3.61554 1.01465 3.60146 1.39873V2.40066H0.601465C0.442335 2.40066 0.289723 2.46387 0.177201 2.57639C0.0646789 2.6889 0.00146484 2.8415 0.00146484 3.00062C0.00146484 3.15974 0.0646789 3.31234 0.177201 3.42486C0.289723 3.53737 0.442335 3.60058 0.601465 3.60058H1.20146V10.2001C1.20146 10.6775 1.39111 11.1353 1.72867 11.4728C2.06624 11.8104 2.52408 12 3.00146 12H9.00147C9.47885 12 9.93669 11.8104 10.2743 11.4728C10.6118 11.1353 10.8015 10.6775 10.8015 10.2001V3.60058H11.4015C11.5606 3.60058 11.7132 3.53737 11.8257 3.42486C11.9383 3.31234 12.0015 3.15974 12.0015 3.00062C12.0015 2.8415 11.9383 2.6889 11.8257 2.57639C11.7132 2.46387 11.5606 2.40066 11.4015 2.40066ZM4.80147 1.39873C4.80147 1.30274 4.92747 1.20074 5.10147 1.20074H6.90147C7.07547 1.20074 7.20147 1.30274 7.20147 1.39873V2.40066H4.80147V1.39873ZM9.60147 10.2001C9.60147 10.3592 9.53825 10.5118 9.42573 10.6244C9.31321 10.7369 9.1606 10.8001 9.00147 10.8001H3.00146C2.84234 10.8001 2.68972 10.7369 2.5772 10.6244C2.46468 10.5118 2.40146 10.3592 2.40146 10.2001V3.60058H9.60147V10.2001Z" fill="#231F20"/>
<path d="M4.2015 9.0002C4.36063 9.0002 4.51324 8.93699 4.62577 8.82448C4.73829 8.71197 4.8015 8.55936 4.8015 8.40024V6.00041C4.8015 5.84129 4.73829 5.68869 4.62577 5.57618C4.51324 5.46366 4.36063 5.40045 4.2015 5.40045C4.04237 5.40045 3.88976 5.46366 3.77724 5.57618C3.66472 5.68869 3.6015 5.84129 3.6015 6.00041V8.40024C3.6015 8.55936 3.66472 8.71197 3.77724 8.82448C3.88976 8.93699 4.04237 9.0002 4.2015 9.0002Z" fill="#231F20"/>
<path d="M7.80142 9.0002C7.96055 9.0002 8.11316 8.93699 8.22568 8.82448C8.3382 8.71197 8.40142 8.55936 8.40142 8.40024V6.00041C8.40142 5.84129 8.3382 5.68869 8.22568 5.57618C8.11316 5.46366 7.96055 5.40045 7.80142 5.40045C7.64229 5.40045 7.48967 5.46366 7.37715 5.57618C7.26463 5.68869 7.20142 5.84129 7.20142 6.00041V8.40024C7.20142 8.55936 7.26463 8.71197 7.37715 8.82448C7.48967 8.93699 7.64229 9.0002 7.80142 9.0002Z" fill="#231F20"/>
</svg>
