<svg width="35" height="35" viewBox="0 0 35 35" fill="none" xmlns="http://www.w3.org/2000/svg">
<path d="M34.534 27.9554L20.4766 3.60745C19.8553 2.53139 18.7426 1.88879 17.4999 1.88879C16.2573 1.88879 15.1445 2.53124 14.5233 3.60745L0.466046 27.9554C-0.155349 29.0314 -0.155349 30.3163 0.466046 31.3925C1.08744 32.4688 2.20006 33.1112 3.44271 33.1112H31.5576C32.8001 33.1112 33.9128 32.4688 34.5341 31.3927C35.1554 30.3165 35.1552 29.0316 34.534 27.9554ZM17.5001 29.1501C16.2664 29.1501 15.2627 28.1464 15.2627 26.9128C15.2627 25.6792 16.2664 24.6756 17.5001 24.6756C18.7338 24.6756 19.7374 25.6792 19.7374 26.9128C19.7373 28.1466 18.7336 29.1501 17.5001 29.1501ZM19.7525 19.5865C19.7525 20.8284 18.742 21.8389 17.5001 21.8389C16.2581 21.8389 15.2477 20.8284 15.2477 19.5865V9.2488C15.2477 8.65956 15.7254 8.18184 16.3146 8.18184H18.6857C19.2751 8.18184 19.7526 8.65956 19.7526 9.2488L19.7525 19.5865Z" fill="#DB5D5D"/>
</svg>
